<svg class="w-6 h-6" width="24" height="24" viewBox="0 0 24 24" fill="none" xmlns="http://www.w3.org/2000/svg"><path d="M7 6V2C7 1.44772 7.44772 1 8 1C8.55228 1 9 1.44772 9 2V6C9 6.55228 8.55228 7 8 7C7.44772 7 7 6.55228 7 6Z" fill="#686583" style="fill-opacity:1;"/><path d="M15 6V2C15 1.44772 15.4477 1 16 1C16.5523 1 17 1.44772 17 2V6C17 6.55228 16.5523 7 16 7C15.4477 7 15 6.55228 15 6Z" fill="#686583" style="fill-opacity:1;"/><path d="M20 6C20 5.44772 19.5523 5 19 5H5C4.44772 5 4 5.44772 4 6V20C4 20.5523 4.44772 21 5 21H19C19.5523 21 20 20.5523 20 20V6ZM22 20C22 21.6569 20.6569 23 19 23H5C3.34315 23 2 21.6569 2 20V6C2 4.34315 3.34315 3 5 3H19C20.6569 3 22 4.34315 22 6V20Z" fill="#686583" style="fill-opacity:1;"/><path d="M21 9C21.5523 9 22 9.44772 22 10C22 10.5523 21.5523 11 21 11H3C2.44772 11 2 10.5523 2 10C2 9.44772 2.44772 9 3 9H21Z" fill="#686583" style="fill-opacity:1;"/><path d="M14.3692 13.2246C14.7619 12.9043 15.3409 12.9269 15.707 13.293C16.0732 13.6591 16.0958 14.2381 15.7754 14.6309L15.707 14.707L11.707 18.707C11.3409 19.0732 10.7619 19.0958 10.3692 18.7754L10.293 18.707L8.29298 16.707L8.22462 16.6309C7.90427 16.2381 7.92686 15.6591 8.29298 15.293C8.65909 14.9269 9.2381 14.9043 9.63087 15.2246L9.70704 15.293L11 16.5859L14.293 13.293L14.3692 13.2246Z" fill="#686583" style="fill-opacity:1;"/></svg>