<svg class="w-6 h-6" width="24" height="24" viewBox="0 0 24 24" fill="none" xmlns="http://www.w3.org/2000/svg"><path d="M14 21V13H10V21C10 21.5523 9.55228 22 9 22C8.44772 22 8 21.5523 8 21V13C8 12.4696 8.21087 11.961 8.58594 11.5859C8.96101 11.2109 9.46957 11 10 11H14C14.5304 11 15.039 11.2109 15.4141 11.5859C15.7891 11.961 16 12.4696 16 13V21C16 21.5523 15.5523 22 15 22C14.4477 22 14 21.5523 14 21Z" fill="#686583" style="fill-opacity:1;"/><path d="M20 9.99957L19.9941 9.89117C19.9824 9.78322 19.9531 9.67762 19.9072 9.57867C19.846 9.44674 19.7566 9.32979 19.6455 9.2359L19.6406 9.23102L12.6455 3.2359V3.23688C12.4875 3.10334 12.2926 3.02251 12.0879 3.00446L12 3.00055C11.7637 3.00055 11.535 3.08433 11.3545 3.23688L11.3535 3.2359L4.35938 9.23102L4.35449 9.2359C4.24342 9.32979 4.15399 9.44674 4.09277 9.57867C4.0316 9.71054 4 9.85421 4 9.99957V18.9996C4 19.2648 4.10543 19.52 4.29297 19.7076C4.48048 19.895 4.73491 19.9996 5 19.9996H19C19.2651 19.9996 19.5195 19.895 19.707 19.7076C19.8946 19.52 20 19.2648 20 18.9996V9.99957ZM22 18.9996C22 19.7952 21.6837 20.559 21.1211 21.1216C20.5585 21.6841 19.7955 21.9996 19 21.9996H5C4.20447 21.9996 3.44149 21.6841 2.87891 21.1216C2.3163 20.559 2 19.7952 2 18.9996V9.99957C2 9.56347 2.09479 9.13248 2.27832 8.73688C2.46197 8.34108 2.73025 7.99023 3.06348 7.70856L10.0586 1.71344L10.0635 1.70953L10.2734 1.54742C10.7771 1.19289 11.3798 1.00055 12 1.00055L12.2646 1.01227C12.7905 1.05883 13.2948 1.24356 13.7266 1.54742L13.9365 1.70953L13.9414 1.71344L20.9365 7.70856L21.0586 7.81696C21.3356 8.07826 21.561 8.39052 21.7217 8.73688C21.9052 9.13248 22 9.56347 22 9.99957V18.9996Z" fill="#686583" style="fill-opacity:1;"/></svg>