<?xml version="1.0" standalone="no"?>
<!DOCTYPE svg PUBLIC "-//W3C//DTD SVG 20010904//EN"
 "http://www.w3.org/TR/2001/REC-SVG-20010904/DTD/svg10.dtd">
<svg version="1.0" xmlns="http://www.w3.org/2000/svg"
 width="790.000000pt" height="407.000000pt" viewBox="0 0 790.000000 407.000000"
 preserveAspectRatio="xMidYMid meet">

<g transform="translate(0.000000,407.000000) scale(0.100000,-0.100000)"
fill="#000000" stroke="none">
<path d="M3493 3655 c7 -145 56 -240 155 -303 56 -36 112 -52 187 -54 52 -1
58 -4 72 -32 26 -48 28 -175 5 -283 -11 -51 -17 -93 -13 -93 4 0 17 46 29 103
43 197 23 314 -68 400 -28 26 -57 47 -65 47 -31 0 -183 80 -214 114 -19 20
-30 36 -24 36 6 0 17 -7 24 -17 15 -17 126 -73 146 -73 26 0 121 -48 156 -80
47 -41 47 -27 -1 45 -48 71 -99 106 -205 140 -101 33 -154 66 -173 108 -14 30
-15 27 -11 -58z"/>
<path d="M4252 3268 c-13 -15 -60 -47 -105 -70 -58 -31 -91 -56 -114 -86 -45
-60 -44 -83 2 -43 20 17 59 43 88 57 29 14 67 37 85 51 18 14 35 23 37 21 11
-11 -33 -52 -94 -88 -38 -22 -87 -61 -110 -86 -39 -44 -97 -151 -88 -160 2 -3
10 9 17 26 17 41 56 70 94 70 18 0 56 12 85 26 87 44 135 137 129 252 l-3 58
-23 -28z"/>
<path d="M3769 2746 c-58 -10 -80 -20 -175 -87 -325 -228 -647 -367 -1025
-443 -169 -34 -333 -53 -590 -66 -551 -29 -550 -28 -124 -25 438 3 574 13 828
60 381 71 714 211 975 411 108 82 202 164 187 162 -5 0 -40 -6 -76 -12z"/>
<path d="M3995 2731 c46 -51 170 -148 270 -213 289 -188 644 -310 1051 -362
213 -27 393 -36 724 -34 355 1 365 0 -205 28 -366 18 -626 59 -870 137 -272
87 -534 220 -777 395 -65 46 -87 57 -134 63 -32 4 -64 9 -73 12 -9 4 -3 -8 14
-26z"/>
<path d="M1343 2133 c15 -2 37 -2 50 0 12 2 0 4 -28 4 -27 0 -38 -2 -22 -4z"/>
<path d="M6433 2133 c15 -2 37 -2 50 0 12 2 0 4 -28 4 -27 0 -38 -2 -22 -4z"/>
<path d="M3095 1739 c-103 -14 -169 -60 -212 -147 -24 -49 -28 -69 -27 -137 0
-95 25 -155 85 -209 61 -56 102 -69 204 -69 101 0 141 13 200 65 61 53 89 120
89 213 1 68 -3 89 -27 137 -55 112 -169 166 -312 147z m153 -48 c106 -55 155
-186 117 -317 -22 -78 -56 -121 -119 -150 -96 -45 -221 -19 -279 57 -14 19
-33 61 -42 93 -37 127 12 262 114 316 50 26 158 27 209 1z"/>
<path d="M4385 1483 c-70 -148 -132 -276 -137 -285 -7 -14 -4 -18 12 -18 16 0
28 15 49 60 45 95 34 90 200 90 l147 0 33 -75 c30 -68 36 -75 62 -75 16 0 29
4 29 9 0 16 -253 561 -260 561 -4 0 -65 -120 -135 -267z m175 57 c23 -52 51
-114 61 -137 l18 -43 -134 0 -135 0 71 141 c38 78 72 140 74 138 2 -2 22 -47
45 -99z"/>
<path d="M5456 1736 c-121 -45 -141 -173 -38 -241 20 -13 78 -37 127 -53 149
-48 185 -75 185 -137 0 -66 -63 -105 -170 -105 -85 0 -144 22 -177 64 -29 36
-43 33 -43 -10 0 -33 3 -37 54 -60 108 -49 258 -41 330 18 108 88 69 203 -85
257 -33 12 -86 31 -119 42 -75 27 -110 58 -110 99 0 68 45 100 140 100 67 0
115 -16 144 -49 28 -31 38 -26 34 16 -3 32 -7 38 -43 50 -61 22 -182 26 -229
9z"/>
<path d="M6596 1638 c-30 -62 -90 -189 -135 -282 -44 -93 -81 -170 -81 -172 0
-2 9 -4 19 -4 14 0 28 19 51 67 17 37 36 71 43 75 7 4 76 8 155 8 l143 0 36
-75 c32 -69 38 -75 65 -75 24 0 29 3 24 16 -30 77 -252 554 -259 554 -4 0 -32
-51 -61 -112z m118 -137 c31 -69 56 -128 56 -133 0 -4 -58 -8 -130 -8 -71 0
-130 2 -130 5 0 17 136 273 142 267 3 -4 32 -63 62 -131z"/>
<path d="M900 1455 l0 -275 30 0 30 0 0 95 0 95 108 0 c135 0 171 10 215 60
68 74 69 163 4 237 -49 56 -77 63 -242 63 l-145 0 0 -275z m297 216 c99 -45
99 -197 0 -244 -25 -12 -62 -17 -136 -17 l-101 0 0 140 0 140 98 0 c74 0 107
-5 139 -19z"/>
<path d="M1472 1458 l3 -273 28 -3 27 -3 0 95 0 96 75 0 75 0 60 -77 c66 -84
106 -113 157 -113 41 0 43 15 4 28 -16 6 -54 42 -90 85 l-61 75 33 11 c45 15
105 76 117 119 14 51 13 76 -5 119 -40 94 -85 112 -278 113 l-147 0 2 -272z
m297 214 c99 -50 105 -177 12 -239 -30 -20 -46 -23 -142 -23 l-109 0 0 140 0
140 103 0 c77 0 110 -4 136 -18z"/>
<path d="M2080 1455 l0 -275 30 0 30 0 0 275 0 275 -30 0 -30 0 0 -275z"/>
<path d="M2292 1458 l3 -273 28 -3 27 -3 0 95 0 96 75 0 75 0 61 -77 c66 -85
106 -113 156 -113 41 0 43 15 4 28 -25 9 -141 137 -141 155 0 4 15 13 33 20
67 29 117 102 117 175 0 29 -25 90 -48 116 -40 44 -88 56 -245 56 l-147 0 2
-272z m297 214 c99 -50 105 -177 12 -239 -30 -20 -46 -23 -142 -23 l-109 0 0
140 0 140 103 0 c77 0 110 -4 136 -18z"/>
<path d="M3560 1455 l0 -275 165 0 c190 0 248 10 312 53 70 47 105 110 111
201 6 97 -16 164 -73 221 -65 66 -106 75 -327 75 l-188 0 0 -275z m418 216
c97 -50 141 -168 107 -288 -21 -74 -53 -115 -108 -142 -38 -19 -61 -21 -200
-21 l-157 0 0 235 0 235 160 0 c138 0 166 -3 198 -19z"/>
<path d="M5910 1454 l0 -275 28 3 27 3 3 92 3 91 128 4 c123 3 129 4 165 32
55 41 76 82 76 144 0 59 -15 94 -57 134 -44 42 -74 48 -229 48 l-144 0 0 -276z
m297 215 c51 -25 73 -61 73 -121 0 -100 -58 -138 -209 -138 l-101 0 0 140 0
140 97 0 c78 0 105 -4 140 -21z"/>
</g>
</svg>
